<?xml version="1.0" encoding="UTF-8"?>
<svg width="120" height="80" viewBox="0 0 120 80" xmlns="http://www.w3.org/2000/svg">
  <g>
    <circle cx="10" cy="10" r="3" fill="#a16207"/>
    <circle cx="30" cy="10" r="3" fill="#a16207"/>
    <circle cx="50" cy="10" r="3" fill="#a16207"/>
    <circle cx="70" cy="10" r="3" fill="#a16207"/>
    <circle cx="90" cy="10" r="3" fill="#a16207"/>
    <circle cx="110" cy="10" r="3" fill="#a16207"/>
    
    <circle cx="10" cy="30" r="3" fill="#a16207"/>
    <circle cx="30" cy="30" r="3" fill="#a16207"/>
    <circle cx="50" cy="30" r="3" fill="#a16207"/>
    <circle cx="70" cy="30" r="3" fill="#a16207"/>
    <circle cx="90" cy="30" r="3" fill="#a16207"/>
    <circle cx="110" cy="30" r="3" fill="#a16207"/>
    
    <circle cx="10" cy="50" r="3" fill="#a16207"/>
    <circle cx="30" cy="50" r="3" fill="#a16207"/>
    <circle cx="50" cy="50" r="3" fill="#a16207"/>
    <circle cx="70" cy="50" r="3" fill="#a16207"/>
    <circle cx="90" cy="50" r="3" fill="#a16207"/>
    <circle cx="110" cy="50" r="3" fill="#a16207"/>
    
    <circle cx="10" cy="70" r="3" fill="#a16207"/>
    <circle cx="30" cy="70" r="3" fill="#a16207"/>
    <circle cx="50" cy="70" r="3" fill="#a16207"/>
    <circle cx="70" cy="70" r="3" fill="#a16207"/>
    <circle cx="90" cy="70" r="3" fill="#a16207"/>
    <circle cx="110" cy="70" r="3" fill="#a16207"/>
  </g>
</svg>



