<?xml version="1.0" encoding="UTF-8"?>
<svg xmlns="http://www.w3.org/2000/svg" width="24" height="24" viewBox="0 0 186 190" fill="none">
  <path d="M182.849 96.3398C182.849 89.9364 182.272 83.7837 181.21 77.8323H95.137V113.561H144.797C142.863 124.647 136.505 133.972 126.946 140.277V162.952H156.758C174.122 147.022 182.849 123.777 182.849 96.3398Z" fill="#4285F4"/>
  <path d="M95.1369 189.344C119.817 189.344 140.509 181.102 156.757 162.952L126.946 140.277C118.755 145.707 107.961 149.171 95.1369 149.171C71.3249 149.171 51.2077 132.91 43.8928 110.432H13.1914V133.884C29.3495 167.181 60.1426 189.344 95.1369 189.344Z" fill="#34A853"/>
  <path d="M43.8932 110.432C42.0516 105.003 41.0277 99.2506 41.0277 93.344C41.0277 87.4375 42.0516 81.6847 43.8932 76.2562V52.8038H13.1918C6.07334 65.9568 1.97363 79.3124 1.97363 93.344C1.97363 107.376 6.07334 120.732 13.1918 133.885L43.8932 110.432Z" fill="#FBBC05"/>
  <path d="M95.1369 37.518C108.406 37.518 120.11 42.0817 129.47 50.895L155.984 24.3818C140.413 9.29227 119.817 0.344727 95.1369 0.344727C60.1426 0.344727 29.3495 22.5079 13.1914 55.8049L43.8928 79.2573C51.2077 56.7783 71.3249 37.518 95.1369 37.518Z" fill="#EA4335"/>
</svg>
